<svg width="720" height="764" viewBox="0 0 720 764" class="keymap" xmlns="http://www.w3.org/2000/svg" xmlns:xlink="http://www.w3.org/1999/xlink">
<style>/* inherit to force styles through use tags */
svg path {
    fill: inherit;
}

/* font and background color specifications */
svg.keymap {
    font-family: SFMono-Regular,Consolas,Liberation Mono,Menlo,monospace;
    font-size: 14px;
    font-kerning: normal;
    text-rendering: optimizeLegibility;
    fill: #24292e;
}

/* default key styling */
rect.key {
    fill: #f6f8fa;
}

rect.key, rect.combo {
    stroke: #c9cccf;
    stroke-width: 1;
}

/* default key side styling, only used is draw_key_sides is set */
rect.side {
    filter: brightness(90%);
}

/* color accent for combo boxes */
rect.combo, rect.combo-separate {
    fill: #cdf;
}

/* color accent for held keys */
rect.held, rect.combo.held {
    fill: #fdd;
}

/* color accent for ghost (optional) keys */
rect.ghost, rect.combo.ghost {
    stroke-dasharray: 4, 4;
    stroke-width: 2;
}

text {
    text-anchor: middle;
    dominant-baseline: middle;
}

/* styling for layer labels */
text.label {
    font-weight: bold;
    text-anchor: start;
    stroke: white;
    stroke-width: 4;
    paint-order: stroke;
}

/* styling for optional footer */
text.footer {
    text-anchor: end;
    dominant-baseline: auto;
    stroke: white;
    stroke-width: 4;
    paint-order: stroke;
}

/* styling for combo tap, and key non-tap label text */
text.combo, text.hold, text.shifted, text.left, text.right {
    font-size: 11px;
}

text.hold {
    text-anchor: middle;
    dominant-baseline: auto;
}

text.shifted {
    text-anchor: middle;
    dominant-baseline: hanging;
}

text.left {
    text-anchor: start;
}

text.right {
    text-anchor: end;
}

text.layer-activator {
    text-decoration: underline;
}

/* styling for hold/shifted label text in combo box */
text.combo.hold, text.combo.shifted, text.combo.left, text.combo.right {
    font-size: 8px;
}

/* lighter symbol for transparent keys */
text.trans {
    fill: #7b7e81;
}

/* styling for combo dendrons */
path.combo {
    stroke-width: 1;
    stroke: gray;
    fill: none;
}

/* Start Tabler Icons Cleanup */
/* cannot use height/width with glyphs */
.icon-tabler > path {
    fill: inherit;
    stroke: inherit;
    stroke-width: 2;
}
/* hide tabler's default box */
.icon-tabler > path[stroke="none"][fill="none"] {
    visibility: hidden;
}
/* End Tabler Icons Cleanup */
</style>
<g transform="translate(30, 0)" class="layer-default">
<text x="0" y="28" class="label" id="default">default:</text>
<g transform="translate(0, 56)">
<g transform="translate(90, 30)" class="key keypos-0">
<rect rx="6" ry="6" x="-28" y="-28" width="56" height="56" class="key"/>
<text x="0" y="0" class="key tap">Q</text>
<text x="0" y="26" class="key hold">LGUI</text>
</g>
<g transform="translate(150, 30)" class="key keypos-1">
<rect rx="6" ry="6" x="-28" y="-28" width="56" height="56" class="key"/>
<text x="0" y="0" class="key tap">U</text>
</g>
<g transform="translate(210, 30)" class="key keypos-2">
<rect rx="6" ry="6" x="-28" y="-28" width="56" height="56" class="key"/>
<text x="0" y="0" class="key tap">Y</text>
</g>
<g transform="translate(450, 30)" class="key keypos-3">
<rect rx="6" ry="6" x="-28" y="-28" width="56" height="56" class="key"/>
<text x="0" y="0" class="key tap">B</text>
</g>
<g transform="translate(510, 30)" class="key keypos-4">
<rect rx="6" ry="6" x="-28" y="-28" width="56" height="56" class="key"/>
<text x="0" y="0" class="key tap">N</text>
</g>
<g transform="translate(570, 30)" class="key keypos-5">
<rect rx="6" ry="6" x="-28" y="-28" width="56" height="56" class="key"/>
<text x="0" y="0" class="key tap">R</text>
<text x="0" y="26" class="key hold">RGUI</text>
</g>
<g transform="translate(30, 90)" class="key keypos-6">
<rect rx="6" ry="6" x="-28" y="-28" width="56" height="56" class="key"/>
<text x="0" y="0" class="key tap">O</text>
<text x="0" y="26" class="key hold">LSHIFT</text>
</g>
<g transform="translate(90, 90)" class="key keypos-7">
<rect rx="6" ry="6" x="-28" y="-28" width="56" height="56" class="key"/>
<text x="0" y="0" class="key tap">I</text>
<text x="0" y="26" class="key hold">LALT</text>
</g>
<g transform="translate(150, 90)" class="key keypos-8">
<rect rx="6" ry="6" x="-28" y="-28" width="56" height="56" class="key"/>
<text x="0" y="0" class="key tap">A</text>
</g>
<g transform="translate(210, 90)" class="key keypos-9">
<rect rx="6" ry="6" x="-28" y="-28" width="56" height="56" class="key"/>
<text x="0" y="0" class="key tap">E</text>
</g>
<g transform="translate(450, 90)" class="key keypos-10">
<rect rx="6" ry="6" x="-28" y="-28" width="56" height="56" class="key"/>
<text x="0" y="0" class="key tap">S</text>
</g>
<g transform="translate(510, 90)" class="key keypos-11">
<rect rx="6" ry="6" x="-28" y="-28" width="56" height="56" class="key"/>
<text x="0" y="0" class="key tap">K</text>
</g>
<g transform="translate(570, 90)" class="key keypos-12">
<rect rx="6" ry="6" x="-28" y="-28" width="56" height="56" class="key"/>
<text x="0" y="0" class="key tap">H</text>
<text x="0" y="26" class="key hold">RALT</text>
</g>
<g transform="translate(630, 90)" class="key keypos-13">
<rect rx="6" ry="6" x="-28" y="-28" width="56" height="56" class="key"/>
<text x="0" y="0" class="key tap">T</text>
<text x="0" y="26" class="key hold">RSHIFT</text>
</g>
<g transform="translate(210, 150)" class="key keypos-14">
<rect rx="6" ry="6" x="-28" y="-28" width="56" height="56" class="key"/>
<text x="0" y="0" class="key tap"><tspan style="font-size: 78%">BACKSPACE</tspan></text>
</g>
<g transform="translate(270, 150)" class="key keypos-15">
<rect rx="6" ry="6" x="-28" y="-28" width="56" height="56" class="key"/>
<text x="0" y="0" class="key tap">SPACE</text>
<a href="#x_x">
<text x="0" y="26" class="key hold layer-activator">2</text>
</a></g>
<g transform="translate(390, 150)" class="key keypos-16">
<rect rx="6" ry="6" x="-28" y="-28" width="56" height="56" class="key"/>
<text x="0" y="0" class="key tap">ENTER</text>
<a href="#x_x">
<text x="0" y="26" class="key hold layer-activator">1</text>
</a></g>
<g transform="translate(450, 150)" class="key keypos-17">
<rect rx="6" ry="6" x="-28" y="-28" width="56" height="56" class="key"/>
<text x="0" y="0" class="key tap">TAB</text>
<text x="0" y="26" class="key hold">RCTRL</text>
</g>
<g class="combo combopos-0">
<path d="M150,90 l-40,0" class="combo"/>
<path d="M150,90 l40,0" class="combo"/>
<rect rx="6" ry="6" x="136" y="77" width="28" height="26" class="combo"/>
<text x="150" y="90" class="combo tap">LANG2</text>
</g>
<g class="combo combopos-1">
<path d="M510,90 l-40,0" class="combo"/>
<path d="M510,90 l40,0" class="combo"/>
<rect rx="6" ry="6" x="496" y="77" width="28" height="26" class="combo"/>
<text x="510" y="90" class="combo tap">LANG1</text>
</g>
<g class="combo combopos-2">
<rect rx="6" ry="6" x="406" y="107" width="28" height="26" class="combo"/>
<text x="420" y="120" class="combo tap">,</text>
</g>
<g class="combo combopos-3">
<path d="M450,120 l42,-21" class="combo"/>
<path d="M450,120 l-42,21" class="combo"/>
<rect rx="6" ry="6" x="436" y="107" width="28" height="26" class="combo"/>
<text x="450" y="120" class="combo tap">.</text>
</g>
<g class="combo combopos-4">
<rect rx="6" ry="6" x="46" y="47" width="28" height="26" class="combo"/>
<text x="60" y="60" class="combo tap">ESC</text>
</g>
<g class="combo combopos-5">
<path d="M150,30 l-40,0" class="combo"/>
<path d="M150,30 l40,0" class="combo"/>
<rect rx="6" ry="6" x="136" y="17" width="28" height="26" class="combo"/>
<text x="150" y="30" class="combo tap">Q</text>
</g>
<g class="combo combopos-6">
<rect rx="6" ry="6" x="166" y="17" width="28" height="26" class="combo"/>
<text x="180" y="30" class="combo tap">X</text>
</g>
<g class="combo combopos-7">
<path d="M510,30 l-40,0" class="combo"/>
<path d="M510,30 l40,0" class="combo"/>
<rect rx="6" ry="6" x="496" y="17" width="28" height="26" class="combo"/>
<text x="510" y="30" class="combo tap">L</text>
</g>
<g class="combo combopos-8">
<rect rx="6" ry="6" x="466" y="17" width="28" height="26" class="combo"/>
<text x="480" y="30" class="combo tap">P</text>
</g>
<g class="combo combopos-9">
<rect rx="6" ry="6" x="526" y="17" width="28" height="26" class="combo"/>
<text x="540" y="30" class="combo tap">M</text>
</g>
<g class="combo combopos-10">
<rect rx="6" ry="6" x="586" y="47" width="28" height="26" class="combo"/>
<text x="600" y="60" class="combo tap">J</text>
</g>
<g class="combo combopos-11">
<rect rx="6" ry="6" x="106" y="77" width="28" height="26" class="combo"/>
<text x="120" y="90" class="combo tap">C</text>
</g>
<g class="combo combopos-12">
<rect rx="6" ry="6" x="166" y="77" width="28" height="26" class="combo"/>
<text x="180" y="90" class="combo tap">V</text>
</g>
<g class="combo combopos-13">
<path d="M510,90 l-40,0" class="combo"/>
<path d="M510,90 l40,0" class="combo"/>
<rect rx="6" ry="6" x="496" y="77" width="28" height="26" class="combo"/>
<text x="510" y="90" class="combo tap">W</text>
</g>
<g class="combo combopos-14">
<rect rx="6" ry="6" x="466" y="77" width="28" height="26" class="combo"/>
<text x="480" y="90" class="combo tap">Z</text>
</g>
<g class="combo combopos-15">
<rect rx="6" ry="6" x="526" y="77" width="28" height="26" class="combo"/>
<text x="540" y="90" class="combo tap">G</text>
</g>
<g class="combo combopos-16">
<rect rx="6" ry="6" x="586" y="77" width="28" height="26" class="combo"/>
<text x="600" y="90" class="combo tap">D</text>
</g>
<g class="combo combopos-17">
<path d="M480,120 l71,-24" class="combo"/>
<path d="M480,120 l-71,24" class="combo"/>
<rect rx="6" ry="6" x="466" y="107" width="28" height="26" class="combo"/>
<text x="480" y="120" class="combo tap">-</text>
</g>
<g class="combo combopos-18">
<path d="M240,90 l-21,-42" class="combo"/>
<path d="M240,90 l21,42" class="combo"/>
<rect rx="6" ry="6" x="226" y="77" width="28" height="26" class="combo"/>
<text x="240" y="90" class="combo tap">[</text>
</g>
<g class="combo combopos-19">
<path d="M420,90 l21,-42" class="combo"/>
<path d="M420,90 l-21,42" class="combo"/>
<rect rx="6" ry="6" x="406" y="77" width="28" height="26" class="combo"/>
<text x="420" y="90" class="combo tap">]</text>
</g>
</g>
</g>
<g transform="translate(30, 236)" class="layer-1">
<text x="0" y="28" class="label" id="x_x">1:</text>
<g transform="translate(0, 56)">
<g transform="translate(90, 30)" class="key keypos-0">
<rect rx="6" ry="6" x="-28" y="-28" width="56" height="56" class="key"/>
<text x="0" y="0" class="key tap">LGUI</text>
</g>
<g transform="translate(150, 30)" class="key keypos-1">
<rect rx="6" ry="6" x="-28" y="-28" width="56" height="56" class="key"/>
<text x="0" y="0" class="key tap">/</text>
</g>
<g transform="translate(210, 30)" class="key keypos-2">
<rect rx="6" ry="6" x="-28" y="-28" width="56" height="56" class="key"/>
<text x="0" y="0" class="key tap">\</text>
</g>
<g transform="translate(450, 30)" class="key keypos-3">
<rect rx="6" ry="6" x="-28" y="-28" width="56" height="56" class="key"/>
<text x="0" y="0" class="key tap">+</text>
</g>
<g transform="translate(510, 30)" class="key keypos-4">
<rect rx="6" ry="6" x="-28" y="-28" width="56" height="56" class="key"/>
<text x="0" y="0" class="key tap">*</text>
</g>
<g transform="translate(570, 30)" class="key keypos-5">
<rect rx="6" ry="6" x="-28" y="-28" width="56" height="56" class="key"/>
<text x="0" y="0" class="key tap">-</text>
</g>
<g transform="translate(30, 90)" class="key keypos-6">
<rect rx="6" ry="6" x="-28" y="-28" width="56" height="56" class="key"/>
<text x="0" y="0" class="key tap">LSHIFT</text>
</g>
<g transform="translate(90, 90)" class="key keypos-7">
<rect rx="6" ry="6" x="-28" y="-28" width="56" height="56" class="key"/>
<text x="0" y="0" class="key tap">LALT</text>
</g>
<g transform="translate(150, 90)" class="key keypos-8">
<rect rx="6" ry="6" x="-28" y="-28" width="56" height="56" class="key"/>
<text x="0" y="0" class="key tap">LCTRL</text>
</g>
<g transform="translate(210, 90)" class="key keypos-9">
<rect rx="6" ry="6" x="-28" y="-28" width="56" height="56" class="key"/>
</g>
<g transform="translate(450, 90)" class="key keypos-10">
<rect rx="6" ry="6" x="-28" y="-28" width="56" height="56" class="key"/>
<a href="#x_x">
<text x="0" y="0" class="key tap layer-activator">1</text>
</a></g>
<g transform="translate(510, 90)" class="key keypos-11">
<rect rx="6" ry="6" x="-28" y="-28" width="56" height="56" class="key"/>
<a href="#x_x">
<text x="0" y="0" class="key tap layer-activator">2</text>
</a></g>
<g transform="translate(570, 90)" class="key keypos-12">
<rect rx="6" ry="6" x="-28" y="-28" width="56" height="56" class="key"/>
<text x="0" y="0" class="key tap">4</text>
</g>
<g transform="translate(630, 90)" class="key keypos-13">
<rect rx="6" ry="6" x="-28" y="-28" width="56" height="56" class="key"/>
<text x="0" y="0" class="key tap">8</text>
</g>
<g transform="translate(210, 150)" class="key keypos-14">
<rect rx="6" ry="6" x="-28" y="-28" width="56" height="56" class="key"/>
<text x="0" y="0" class="key tap">DEL</text>
</g>
<g transform="translate(270, 150)" class="key trans keypos-15">
<rect rx="6" ry="6" x="-28" y="-28" width="56" height="56" class="key trans"/>
<text x="0" y="0" class="key trans tap">▽</text>
</g>
<g transform="translate(390, 150)" class="key held keypos-16">
<rect rx="6" ry="6" x="-28" y="-28" width="56" height="56" class="key held"/>
</g>
<g transform="translate(450, 150)" class="key trans keypos-17">
<rect rx="6" ry="6" x="-28" y="-28" width="56" height="56" class="key trans"/>
<text x="0" y="0" class="key trans tap">▽</text>
</g>
<g class="combo combopos-0">
<path d="M150,90 l-40,0" class="combo"/>
<path d="M150,90 l40,0" class="combo"/>
<rect rx="6" ry="6" x="136" y="77" width="28" height="26" class="combo"/>
<text x="150" y="90" class="combo tap">LANG2</text>
</g>
<g class="combo combopos-1">
<path d="M510,90 l-40,0" class="combo"/>
<path d="M510,90 l40,0" class="combo"/>
<rect rx="6" ry="6" x="496" y="77" width="28" height="26" class="combo"/>
<text x="510" y="90" class="combo tap">LANG1</text>
</g>
<g class="combo combopos-2">
<rect rx="6" ry="6" x="406" y="107" width="28" height="26" class="combo"/>
<text x="420" y="120" class="combo tap">,</text>
</g>
<g class="combo combopos-3">
<path d="M450,120 l42,-21" class="combo"/>
<path d="M450,120 l-42,21" class="combo"/>
<rect rx="6" ry="6" x="436" y="107" width="28" height="26" class="combo"/>
<text x="450" y="120" class="combo tap">.</text>
</g>
<g class="combo combopos-4">
<rect rx="6" ry="6" x="46" y="47" width="28" height="26" class="combo"/>
<text x="60" y="60" class="combo tap">ESC</text>
</g>
<g class="combo combopos-5">
<rect rx="6" ry="6" x="466" y="77" width="28" height="26" class="combo"/>
<text x="480" y="90" class="combo tap">3</text>
</g>
<g class="combo combopos-6">
<path d="M510,90 l-40,0" class="combo"/>
<path d="M510,90 l40,0" class="combo"/>
<rect rx="6" ry="6" x="496" y="77" width="28" height="26" class="combo"/>
<text x="510" y="90" class="combo tap">5</text>
</g>
<g class="combo combopos-7">
<rect rx="6" ry="6" x="526" y="77" width="28" height="26" class="combo"/>
<text x="540" y="90" class="combo tap">6</text>
</g>
<g class="combo combopos-8">
<path d="M510,90 l-40,0" class="combo"/>
<path d="M510,90 l40,0" class="combo"/>
<rect rx="6" ry="6" x="496" y="77" width="28" height="26" class="combo"/>
<text x="510" y="90" class="combo tap">7</text>
</g>
<g class="combo combopos-9">
<path d="M540,90 l-70,0" class="combo"/>
<path d="M540,90 l70,0" class="combo"/>
<rect rx="6" ry="6" x="526" y="77" width="28" height="26" class="combo"/>
<text x="540" y="90" class="combo tap">9</text>
</g>
<g class="combo combopos-10">
<path d="M570,90 l-40,0" class="combo"/>
<path d="M570,90 l40,0" class="combo"/>
<rect rx="6" ry="6" x="556" y="77" width="28" height="26" class="combo"/>
<text x="570" y="90" class="combo tap">0</text>
</g>
</g>
</g>
<g transform="translate(30, 472)" class="layer-2">
<text x="0" y="28" class="label" id="x_x">2:</text>
<g transform="translate(0, 56)">
<g transform="translate(90, 30)" class="key trans keypos-0">
<rect rx="6" ry="6" x="-28" y="-28" width="56" height="56" class="key trans"/>
<text x="0" y="0" class="key trans tap">▽</text>
</g>
<g transform="translate(150, 30)" class="key keypos-1">
<rect rx="6" ry="6" x="-28" y="-28" width="56" height="56" class="key"/>
<text x="0" y="0" class="key tap">UP</text>
</g>
<g transform="translate(210, 30)" class="key keypos-2">
<rect rx="6" ry="6" x="-28" y="-28" width="56" height="56" class="key"/>
</g>
<g transform="translate(450, 30)" class="key keypos-3">
<rect rx="6" ry="6" x="-28" y="-28" width="56" height="56" class="key"/>
</g>
<g transform="translate(510, 30)" class="key keypos-4">
<rect rx="6" ry="6" x="-28" y="-28" width="56" height="56" class="key"/>
</g>
<g transform="translate(570, 30)" class="key keypos-5">
<rect rx="6" ry="6" x="-28" y="-28" width="56" height="56" class="key"/>
</g>
<g transform="translate(30, 90)" class="key trans keypos-6">
<rect rx="6" ry="6" x="-28" y="-28" width="56" height="56" class="key trans"/>
<text x="0" y="0" class="key trans tap">▽</text>
</g>
<g transform="translate(90, 90)" class="key keypos-7">
<rect rx="6" ry="6" x="-28" y="-28" width="56" height="56" class="key"/>
<text x="0" y="0" class="key tap">LEFT</text>
</g>
<g transform="translate(150, 90)" class="key keypos-8">
<rect rx="6" ry="6" x="-28" y="-28" width="56" height="56" class="key"/>
<text x="0" y="0" class="key tap">DOWN</text>
</g>
<g transform="translate(210, 90)" class="key keypos-9">
<rect rx="6" ry="6" x="-28" y="-28" width="56" height="56" class="key"/>
<text x="0" y="0" class="key tap">RIGHT</text>
</g>
<g transform="translate(450, 90)" class="key keypos-10">
<rect rx="6" ry="6" x="-28" y="-28" width="56" height="56" class="key"/>
<text x="0" y="0" class="key tap">F1</text>
</g>
<g transform="translate(510, 90)" class="key keypos-11">
<rect rx="6" ry="6" x="-28" y="-28" width="56" height="56" class="key"/>
<text x="0" y="0" class="key tap">F2</text>
</g>
<g transform="translate(570, 90)" class="key keypos-12">
<rect rx="6" ry="6" x="-28" y="-28" width="56" height="56" class="key"/>
<text x="0" y="0" class="key tap">F4</text>
</g>
<g transform="translate(630, 90)" class="key keypos-13">
<rect rx="6" ry="6" x="-28" y="-28" width="56" height="56" class="key"/>
<text x="0" y="0" class="key tap">F8</text>
</g>
<g transform="translate(210, 150)" class="key trans keypos-14">
<rect rx="6" ry="6" x="-28" y="-28" width="56" height="56" class="key trans"/>
<text x="0" y="0" class="key trans tap">▽</text>
</g>
<g transform="translate(270, 150)" class="key held keypos-15">
<rect rx="6" ry="6" x="-28" y="-28" width="56" height="56" class="key held"/>
</g>
<g transform="translate(390, 150)" class="key trans keypos-16">
<rect rx="6" ry="6" x="-28" y="-28" width="56" height="56" class="key trans"/>
<text x="0" y="0" class="key trans tap">▽</text>
</g>
<g transform="translate(450, 150)" class="key trans keypos-17">
<rect rx="6" ry="6" x="-28" y="-28" width="56" height="56" class="key trans"/>
<text x="0" y="0" class="key trans tap">▽</text>
</g>
<g class="combo combopos-0">
<path d="M150,90 l-40,0" class="combo"/>
<path d="M150,90 l40,0" class="combo"/>
<rect rx="6" ry="6" x="136" y="77" width="28" height="26" class="combo"/>
<text x="150" y="90" class="combo tap">LANG2</text>
</g>
<g class="combo combopos-1">
<path d="M510,90 l-40,0" class="combo"/>
<path d="M510,90 l40,0" class="combo"/>
<rect rx="6" ry="6" x="496" y="77" width="28" height="26" class="combo"/>
<text x="510" y="90" class="combo tap">LANG1</text>
</g>
<g class="combo combopos-2">
<rect rx="6" ry="6" x="406" y="107" width="28" height="26" class="combo"/>
<text x="420" y="120" class="combo tap">,</text>
</g>
<g class="combo combopos-3">
<path d="M450,120 l42,-21" class="combo"/>
<path d="M450,120 l-42,21" class="combo"/>
<rect rx="6" ry="6" x="436" y="107" width="28" height="26" class="combo"/>
<text x="450" y="120" class="combo tap">.</text>
</g>
<g class="combo combopos-4">
<rect rx="6" ry="6" x="46" y="47" width="28" height="26" class="combo"/>
<text x="60" y="60" class="combo tap">ESC</text>
</g>
<g class="combo combopos-5">
<rect rx="6" ry="6" x="466" y="77" width="28" height="26" class="combo"/>
<text x="480" y="90" class="combo tap">F3</text>
</g>
<g class="combo combopos-6">
<path d="M510,90 l-40,0" class="combo"/>
<path d="M510,90 l40,0" class="combo"/>
<rect rx="6" ry="6" x="496" y="77" width="28" height="26" class="combo"/>
<text x="510" y="90" class="combo tap">F5</text>
</g>
<g class="combo combopos-7">
<rect rx="6" ry="6" x="526" y="77" width="28" height="26" class="combo"/>
<text x="540" y="90" class="combo tap">F6</text>
</g>
<g class="combo combopos-8">
<path d="M510,90 l-40,0" class="combo"/>
<path d="M510,90 l40,0" class="combo"/>
<rect rx="6" ry="6" x="496" y="77" width="28" height="26" class="combo"/>
<text x="510" y="90" class="combo tap">F7</text>
</g>
<g class="combo combopos-9">
<path d="M540,90 l-70,0" class="combo"/>
<path d="M540,90 l70,0" class="combo"/>
<rect rx="6" ry="6" x="526" y="77" width="28" height="26" class="combo"/>
<text x="540" y="90" class="combo tap">F9</text>
</g>
<g class="combo combopos-10">
<path d="M570,90 l-40,0" class="combo"/>
<path d="M570,90 l40,0" class="combo"/>
<rect rx="6" ry="6" x="556" y="77" width="28" height="26" class="combo"/>
<text x="570" y="90" class="combo tap">F10</text>
</g>
<g class="combo combopos-11">
<path d="M530,90 l-60,0" class="combo"/>
<path d="M530,90 l80,0" class="combo"/>
<rect rx="6" ry="6" x="516" y="77" width="28" height="26" class="combo"/>
<text x="530" y="90" class="combo tap">F11</text>
</g>
<g class="combo combopos-12">
<rect rx="6" ry="6" x="586" y="77" width="28" height="26" class="combo"/>
<text x="600" y="90" class="combo tap">F12</text>
</g>
</g>
</g>
<text x="690.0" y="736.0" class="footer">tiny18 (auto-generated)</text></svg>
